<?xml version="1.0" encoding="utf-8"?>
<!-- Generated by IcoMoon.io -->
<!DOCTYPE svg PUBLIC "-//W3C//DTD SVG 1.1//EN" "http://www.w3.org/Graphics/SVG/1.1/DTD/svg11.dtd">
<svg version="1.1" xmlns="http://www.w3.org/2000/svg" xmlns:xlink="http://www.w3.org/1999/xlink" width="197" height="24" viewBox="0 0 197 24">
<g transform="translate(0 0)">
	<path d="M4.674 8.371v13.272h-4.42v-13.272h4.42zM4.955 4.272q0.013 0.978-0.676 1.634t-1.815 0.656h-0.027q-1.098 0-1.768-0.656t-0.67-1.634q0-0.991 0.69-1.641t1.801-0.65 1.781 0.65 0.683 1.641zM20.571 14.036v7.607h-4.406v-7.098q0-1.406-0.542-2.203t-1.694-0.797q-0.844 0-1.413 0.462t-0.85 1.145q-0.147 0.402-0.147 1.085v7.406h-4.406q0.027-5.344 0.027-8.665t-0.013-3.964l-0.013-0.643h4.406v1.929h-0.027q0.268-0.429 0.549-0.75t0.757-0.696 1.165-0.583 1.533-0.208q2.29 0 3.683 1.52t1.393 4.453z" fill="#3e7fa6" />
</g>
<g transform="translate(37 0)">
	<path d="M11.732 19.621q0-0.281-0.060-0.542t-0.127-0.482-0.234-0.462-0.281-0.408-0.355-0.395-0.368-0.342-0.429-0.342-0.415-0.308-0.442-0.308-0.408-0.281q-0.228-0.027-0.67-0.027-0.723 0-1.42 0.094t-1.446 0.335-1.313 0.616-0.924 1.004-0.362 1.433q0 0.911 0.475 1.627t1.246 1.125 1.614 0.609 1.701 0.201q0.79 0 1.507-0.167t1.346-0.522 0.998-0.984 0.368-1.473zM10.125 8.076q0-0.804-0.221-1.708t-0.629-1.748-1.125-1.393-1.6-0.549q-1.246 0-1.929 0.924t-0.683 2.21q0 0.629 0.154 1.326t0.475 1.393 0.75 1.252 1.045 0.904 1.299 0.348q1.299 0 1.882-0.81t0.583-2.15zM8.371 1.714h5.853l-1.808 1.058h-1.808q0.951 0.603 1.473 1.687t0.522 2.263q0 0.991-0.308 1.761t-0.75 1.239-0.884 0.864-0.75 0.817-0.308 0.904q0 0.348 0.221 0.683t0.576 0.643 0.783 0.643 0.857 0.743 0.783 0.884 0.576 1.138 0.221 1.426q0 2.143-1.875 3.777-2.036 1.754-5.625 1.754-0.79 0-1.6-0.134t-1.634-0.449-1.453-0.777-1.031-1.192-0.402-1.627q0-0.817 0.496-1.808 0.429-0.857 1.286-1.48t1.942-0.951 2.076-0.482 2.009-0.181q-0.857-1.112-0.857-1.996 0-0.161 0.027-0.315t0.067-0.261 0.107-0.288 0.094-0.288q-0.536 0.067-0.938 0.067-1.996 0-3.422-1.313t-1.426-3.295q0-1.875 1.272-3.355t3.134-1.895q1.259-0.268 2.504-0.268zM22.286 5.143v1.714h-3.429v3.429h-1.714v-3.429h-3.429v-1.714h3.429v-3.429h1.714v3.429h3.429z" fill="#3e7fa6" />
</g>
<g transform="translate(75 0)">
	<path d="M6.844 7.446h3.442l-0.402 3.804h-3.040v11.036h-4.567v-11.036h-2.277v-3.804h2.277v-2.29q0-2.437 1.152-3.69t3.79-1.252h3.040v3.804h-1.902q-0.522 0-0.837 0.087t-0.455 0.315-0.181 0.462-0.040 0.663v1.902z" fill="#3e7fa6" />
</g>
<g transform="translate(101 0)">
	<path d="M21.696 5.464q-0.897 1.313-2.17 2.237 0.013 0.188 0.013 0.562 0 1.741-0.509 3.475t-1.547 3.328-2.471 2.819-3.455 1.955-4.326 0.73q-3.629 0-6.643-1.942 0.469 0.054 1.045 0.054 3.013 0 5.371-1.848-1.406-0.027-2.518-0.864t-1.527-2.136q0.442 0.067 0.817 0.067 0.576 0 1.138-0.147-1.5-0.308-2.484-1.493t-0.984-2.752v-0.054q0.911 0.509 1.955 0.549-0.884-0.589-1.406-1.54t-0.522-2.063q0-1.179 0.589-2.183 1.621 1.996 3.944 3.194t4.975 1.333q-0.107-0.509-0.107-0.991 0-1.795 1.266-3.060t3.060-1.266q1.875 0 3.161 1.366 1.46-0.281 2.746-1.045-0.496 1.54-1.902 2.384 1.246-0.134 2.491-0.67z" fill="#3e7fa6" />
</g>
<g transform="translate(139 0)">
	<path d="M13.004 16.661v2.826q0 0.897-0.522 0.897-0.308 0-0.603-0.295v-4.031q0.295-0.295 0.603-0.295 0.522 0 0.522 0.897zM17.531 16.674v0.616h-1.205v-0.616q0-0.911 0.603-0.911t0.603 0.911zM4.594 13.754h1.433v-1.259h-4.179v1.259h1.406v7.621h1.339v-7.621zM8.451 21.375h1.192v-6.616h-1.192v5.063q-0.402 0.563-0.763 0.563-0.241 0-0.281-0.281-0.013-0.040-0.013-0.469v-4.875h-1.192v5.237q0 0.656 0.107 0.978 0.161 0.496 0.777 0.496 0.643 0 1.366-0.817v0.723zM14.196 19.393v-2.638q0-0.978-0.121-1.326-0.228-0.75-0.951-0.75-0.67 0-1.246 0.723v-2.906h-1.192v8.879h1.192v-0.643q0.603 0.737 1.246 0.737 0.723 0 0.951-0.737 0.121-0.362 0.121-1.339zM18.723 19.259v-0.174h-1.219q0 0.683-0.027 0.817-0.094 0.482-0.536 0.482-0.616 0-0.616-0.924v-1.165h2.397v-1.379q0-1.058-0.362-1.554-0.522-0.683-1.42-0.683-0.911 0-1.433 0.683-0.375 0.496-0.375 1.554v2.317q0 1.058 0.388 1.554 0.522 0.683 1.446 0.683 0.964 0 1.446-0.71 0.241-0.362 0.281-0.723 0.027-0.121 0.027-0.777zM10.58 7.031v-2.813q0-0.924-0.576-0.924t-0.576 0.924v2.813q0 0.938 0.576 0.938t0.576-0.938zM20.21 17.089q0 3.134-0.348 4.688-0.188 0.79-0.777 1.326t-1.366 0.616q-2.464 0.281-7.433 0.281t-7.433-0.281q-0.777-0.080-1.373-0.616t-0.77-1.326q-0.348-1.5-0.348-4.688 0-3.134 0.348-4.688 0.188-0.79 0.777-1.326t1.379-0.629q2.451-0.268 7.42-0.268t7.433 0.268q0.777 0.094 1.373 0.629t0.77 1.326q0.348 1.5 0.348 4.688zM6.844 0h1.366l-1.621 5.344v3.629h-1.339v-3.629q-0.188-0.991-0.817-2.839-0.496-1.379-0.871-2.504h1.42l0.951 3.522zM11.799 4.46v2.344q0 1.085-0.375 1.58-0.496 0.683-1.42 0.683-0.897 0-1.406-0.683-0.375-0.509-0.375-1.58v-2.344q0-1.071 0.375-1.567 0.509-0.683 1.406-0.683 0.924 0 1.42 0.683 0.375 0.496 0.375 1.567zM16.286 2.29v6.683h-1.219v-0.737q-0.71 0.83-1.379 0.83-0.616 0-0.79-0.496-0.107-0.321-0.107-1.004v-5.277h1.219v4.915q0 0.442 0.013 0.469 0.040 0.295 0.281 0.295 0.362 0 0.763-0.576v-5.103h1.219z" fill="#3e7fa6" />
</g>
<g transform="translate(176 0)">
	<path d="M20.571 18v1.714q0 0.348-0.254 0.603t-0.603 0.254h-18.857q-0.348 0-0.603-0.254t-0.254-0.603v-1.714q0-0.348 0.254-0.603t0.603-0.254h18.857q0.348 0 0.603 0.254t0.254 0.603zM20.571 11.143v1.714q0 0.348-0.254 0.603t-0.603 0.254h-18.857q-0.348 0-0.603-0.254t-0.254-0.603v-1.714q0-0.348 0.254-0.603t0.603-0.254h18.857q0.348 0 0.603 0.254t0.254 0.603zM20.571 4.286v1.714q0 0.348-0.254 0.603t-0.603 0.254h-18.857q-0.348 0-0.603-0.254t-0.254-0.603v-1.714q0-0.348 0.254-0.603t0.603-0.254h18.857q0.348 0 0.603 0.254t0.254 0.603z" fill="#3e7fa6" />
</g>
</svg>
